<mxfile host="app.diagrams.net" modified="2023-04-19T17:50:29.173Z" agent="Mozilla/5.0 (Windows NT 10.0; Win64; x64) AppleWebKit/537.36 (KHTML, like Gecko) Chrome/112.0.0.0 Safari/537.36" etag="4bZGJCsB4a_t5hZRYE2m" version="21.1.8" type="device">
  <diagram id="kaDx7qJVxuhn4exY41e5" name="Page-1">
    <mxGraphModel dx="1877" dy="1742" grid="1" gridSize="10" guides="1" tooltips="1" connect="1" arrows="1" fold="1" page="1" pageScale="1" pageWidth="827" pageHeight="1169" math="0" shadow="0">
      <root>
        <mxCell id="0" />
        <mxCell id="1" parent="0" />
        <mxCell id="1EXBglIDdu4dAjo1Q3cM-1" value="" style="rounded=0;whiteSpace=wrap;html=1;" parent="1" vertex="1">
          <mxGeometry x="415" y="135" width="110" height="40" as="geometry" />
        </mxCell>
        <mxCell id="1EXBglIDdu4dAjo1Q3cM-2" value="" style="rounded=0;whiteSpace=wrap;html=1;" parent="1" vertex="1">
          <mxGeometry x="-50" y="45" width="110" height="40" as="geometry" />
        </mxCell>
        <mxCell id="1EXBglIDdu4dAjo1Q3cM-3" value="" style="rounded=0;whiteSpace=wrap;html=1;" parent="1" vertex="1">
          <mxGeometry x="395" y="365" width="110" height="40" as="geometry" />
        </mxCell>
        <mxCell id="1EXBglIDdu4dAjo1Q3cM-6" value="&lt;font style=&quot;font-size: 16px;&quot;&gt;тема&lt;/font&gt;" style="text;html=1;resizable=0;autosize=1;align=center;verticalAlign=middle;points=[];fillColor=none;strokeColor=none;rounded=0;" parent="1" vertex="1">
          <mxGeometry x="420" y="370" width="60" height="30" as="geometry" />
        </mxCell>
        <mxCell id="1EXBglIDdu4dAjo1Q3cM-7" value="държава" style="text;html=1;resizable=0;autosize=1;align=center;verticalAlign=middle;points=[];fillColor=none;strokeColor=none;rounded=0;fontSize=16;" parent="1" vertex="1">
          <mxGeometry x="-10" y="170" width="90" height="30" as="geometry" />
        </mxCell>
        <mxCell id="1EXBglIDdu4dAjo1Q3cM-8" value="автор" style="text;html=1;resizable=0;autosize=1;align=center;verticalAlign=middle;points=[];fillColor=none;strokeColor=none;rounded=0;fontSize=16;" parent="1" vertex="1">
          <mxGeometry x="-30" y="50" width="70" height="30" as="geometry" />
        </mxCell>
        <mxCell id="1EXBglIDdu4dAjo1Q3cM-9" value="&lt;span style=&quot;&quot;&gt;Заглавие&lt;/span&gt;" style="ellipse;whiteSpace=wrap;html=1;fontSize=16;" parent="1" vertex="1">
          <mxGeometry x="305" y="5" width="90" height="50" as="geometry" />
        </mxCell>
        <mxCell id="1EXBglIDdu4dAjo1Q3cM-11" value="&lt;span style=&quot;&quot;&gt;Съдържание&lt;/span&gt;" style="ellipse;whiteSpace=wrap;html=1;fontSize=16;" parent="1" vertex="1">
          <mxGeometry x="380" y="-35" width="90" height="50" as="geometry" />
        </mxCell>
        <mxCell id="1EXBglIDdu4dAjo1Q3cM-12" value="&lt;span style=&quot;&quot;&gt;ЗаглавиеID&lt;/span&gt;" style="ellipse;whiteSpace=wrap;html=1;fontSize=16;" parent="1" vertex="1">
          <mxGeometry x="300" y="65" width="90" height="50" as="geometry" />
        </mxCell>
        <mxCell id="1EXBglIDdu4dAjo1Q3cM-14" value="&lt;span style=&quot;&quot;&gt;тематика&lt;/span&gt;" style="ellipse;whiteSpace=wrap;html=1;fontSize=16;" parent="1" vertex="1">
          <mxGeometry x="700" y="60" width="90" height="50" as="geometry" />
        </mxCell>
        <mxCell id="1EXBglIDdu4dAjo1Q3cM-15" value="&lt;span style=&quot;&quot;&gt;снимка&lt;/span&gt;" style="ellipse;whiteSpace=wrap;html=1;fontSize=16;" parent="1" vertex="1">
          <mxGeometry x="710" y="120" width="90" height="50" as="geometry" />
        </mxCell>
        <mxCell id="1EXBglIDdu4dAjo1Q3cM-23" value="" style="ellipse;whiteSpace=wrap;html=1;fontSize=16;" parent="1" vertex="1">
          <mxGeometry x="530" y="350" width="90" height="50" as="geometry" />
        </mxCell>
        <mxCell id="1EXBglIDdu4dAjo1Q3cM-24" value="заглавие" style="text;html=1;resizable=0;autosize=1;align=center;verticalAlign=middle;points=[];fillColor=none;strokeColor=none;rounded=0;fontSize=16;" parent="1" vertex="1">
          <mxGeometry x="530" y="360" width="90" height="30" as="geometry" />
        </mxCell>
        <mxCell id="1EXBglIDdu4dAjo1Q3cM-25" value="" style="ellipse;whiteSpace=wrap;html=1;fontSize=16;fillColor=none;" parent="1" vertex="1">
          <mxGeometry x="-10" y="162.5" width="90" height="50" as="geometry" />
        </mxCell>
        <mxCell id="1EXBglIDdu4dAjo1Q3cM-27" value="" style="ellipse;whiteSpace=wrap;html=1;fontSize=16;" parent="1" vertex="1">
          <mxGeometry y="-30" width="90" height="50" as="geometry" />
        </mxCell>
        <mxCell id="1EXBglIDdu4dAjo1Q3cM-28" value="" style="ellipse;whiteSpace=wrap;html=1;fontSize=16;" parent="1" vertex="1">
          <mxGeometry x="-110" y="-20" width="90" height="50" as="geometry" />
        </mxCell>
        <mxCell id="1EXBglIDdu4dAjo1Q3cM-29" value="" style="ellipse;whiteSpace=wrap;html=1;fontSize=16;" parent="1" vertex="1">
          <mxGeometry x="-150" y="55" width="90" height="50" as="geometry" />
        </mxCell>
        <mxCell id="1EXBglIDdu4dAjo1Q3cM-30" value="" style="ellipse;whiteSpace=wrap;html=1;fontSize=16;" parent="1" vertex="1">
          <mxGeometry x="-100" y="125" width="90" height="50" as="geometry" />
        </mxCell>
        <mxCell id="1EXBglIDdu4dAjo1Q3cM-31" value="" style="ellipse;whiteSpace=wrap;html=1;fontSize=16;" parent="1" vertex="1">
          <mxGeometry x="110" y="10" width="90" height="50" as="geometry" />
        </mxCell>
        <mxCell id="1EXBglIDdu4dAjo1Q3cM-32" value="име" style="text;html=1;resizable=0;autosize=1;align=center;verticalAlign=middle;points=[];fillColor=none;strokeColor=none;rounded=0;fontSize=16;" parent="1" vertex="1">
          <mxGeometry x="-92" y="-10" width="50" height="30" as="geometry" />
        </mxCell>
        <mxCell id="1EXBglIDdu4dAjo1Q3cM-33" value="снимка" style="text;html=1;resizable=0;autosize=1;align=center;verticalAlign=middle;points=[];fillColor=none;strokeColor=none;rounded=0;fontSize=16;" parent="1" vertex="1">
          <mxGeometry x="5" y="-20" width="80" height="30" as="geometry" />
        </mxCell>
        <mxCell id="1EXBglIDdu4dAjo1Q3cM-34" value="АвторID" style="text;html=1;resizable=0;autosize=1;align=center;verticalAlign=middle;points=[];fillColor=none;strokeColor=none;rounded=0;fontSize=16;" parent="1" vertex="1">
          <mxGeometry x="115" y="20" width="80" height="30" as="geometry" />
        </mxCell>
        <mxCell id="1EXBglIDdu4dAjo1Q3cM-35" value="пол" style="text;html=1;resizable=0;autosize=1;align=center;verticalAlign=middle;points=[];fillColor=none;strokeColor=none;rounded=0;fontSize=16;" parent="1" vertex="1">
          <mxGeometry x="-130" y="65" width="50" height="30" as="geometry" />
        </mxCell>
        <mxCell id="1EXBglIDdu4dAjo1Q3cM-36" value="" style="ellipse;whiteSpace=wrap;html=1;fontSize=16;" parent="1" vertex="1">
          <mxGeometry x="60" y="120" width="90" height="50" as="geometry" />
        </mxCell>
        <mxCell id="1EXBglIDdu4dAjo1Q3cM-37" value="био/ инфо" style="text;html=1;resizable=0;autosize=1;align=center;verticalAlign=middle;points=[];fillColor=none;strokeColor=none;rounded=0;fontSize=16;" parent="1" vertex="1">
          <mxGeometry x="55" y="130" width="100" height="30" as="geometry" />
        </mxCell>
        <mxCell id="1EXBglIDdu4dAjo1Q3cM-38" value="рождена&lt;br&gt;&amp;nbsp;дата" style="text;html=1;resizable=0;autosize=1;align=center;verticalAlign=middle;points=[];fillColor=none;strokeColor=none;rounded=0;fontSize=16;" parent="1" vertex="1">
          <mxGeometry x="-100" y="125" width="90" height="50" as="geometry" />
        </mxCell>
        <mxCell id="1EXBglIDdu4dAjo1Q3cM-39" value="" style="endArrow=none;html=1;rounded=0;fontSize=16;exitX=0.5;exitY=1;exitDx=0;exitDy=0;entryX=0.115;entryY=-0.044;entryDx=0;entryDy=0;entryPerimeter=0;startArrow=none;" parent="1" source="_TAyfjN0NOrxhkTcAUuJ-20" edge="1">
          <mxGeometry width="50" height="50" relative="1" as="geometry">
            <mxPoint x="260" y="250" as="sourcePoint" />
            <mxPoint x="419.9499999999998" y="138.68000000000006" as="targetPoint" />
          </mxGeometry>
        </mxCell>
        <mxCell id="1EXBglIDdu4dAjo1Q3cM-40" value="" style="endArrow=none;html=1;rounded=0;fontSize=16;entryX=0.567;entryY=1.044;entryDx=0;entryDy=0;entryPerimeter=0;exitX=0.662;exitY=0.173;exitDx=0;exitDy=0;exitPerimeter=0;startArrow=none;" parent="1" source="_TAyfjN0NOrxhkTcAUuJ-22" edge="1">
          <mxGeometry width="50" height="50" relative="1" as="geometry">
            <mxPoint x="260" y="250" as="sourcePoint" />
            <mxPoint x="478.71000000000004" y="171.31999999999994" as="targetPoint" />
          </mxGeometry>
        </mxCell>
        <mxCell id="1EXBglIDdu4dAjo1Q3cM-41" value="" style="endArrow=none;html=1;rounded=0;fontSize=16;exitX=0.259;exitY=-0.078;exitDx=0;exitDy=0;exitPerimeter=0;entryX=0.381;entryY=1.133;entryDx=0;entryDy=0;entryPerimeter=0;" parent="1" source="1EXBglIDdu4dAjo1Q3cM-7" target="1EXBglIDdu4dAjo1Q3cM-8" edge="1">
          <mxGeometry width="50" height="50" relative="1" as="geometry">
            <mxPoint x="260" y="250" as="sourcePoint" />
            <mxPoint x="310" y="200" as="targetPoint" />
          </mxGeometry>
        </mxCell>
        <mxCell id="1EXBglIDdu4dAjo1Q3cM-42" value="" style="endArrow=none;html=1;rounded=0;fontSize=16;entryX=0.206;entryY=1.147;entryDx=0;entryDy=0;entryPerimeter=0;exitX=0.938;exitY=0.187;exitDx=0;exitDy=0;exitPerimeter=0;" parent="1" source="_TAyfjN0NOrxhkTcAUuJ-8" edge="1">
          <mxGeometry width="50" height="50" relative="1" as="geometry">
            <mxPoint x="387.5" y="200" as="sourcePoint" />
            <mxPoint x="431.7800000000002" y="174.41000000000008" as="targetPoint" />
          </mxGeometry>
        </mxCell>
        <mxCell id="1EXBglIDdu4dAjo1Q3cM-44" value="" style="endArrow=none;html=1;rounded=0;fontSize=16;entryX=0.885;entryY=1;entryDx=0;entryDy=0;entryPerimeter=0;exitX=0.229;exitY=0.06;exitDx=0;exitDy=0;exitPerimeter=0;" parent="1" source="_TAyfjN0NOrxhkTcAUuJ-7" edge="1">
          <mxGeometry width="50" height="50" relative="1" as="geometry">
            <mxPoint x="575" y="190.2553975776725" as="sourcePoint" />
            <mxPoint x="520.0500000000002" y="170" as="targetPoint" />
          </mxGeometry>
        </mxCell>
        <mxCell id="1EXBglIDdu4dAjo1Q3cM-45" value="" style="endArrow=none;html=1;rounded=0;fontSize=16;entryX=1.018;entryY=0.2;entryDx=0;entryDy=0;entryPerimeter=0;" parent="1" source="1EXBglIDdu4dAjo1Q3cM-14" edge="1">
          <mxGeometry width="50" height="50" relative="1" as="geometry">
            <mxPoint x="600" y="139.58333333333326" as="sourcePoint" />
            <mxPoint x="537.3400000000001" y="146" as="targetPoint" />
            <Array as="points">
              <mxPoint x="537" y="146" />
              <mxPoint x="510" y="150" />
            </Array>
          </mxGeometry>
        </mxCell>
        <mxCell id="1EXBglIDdu4dAjo1Q3cM-46" value="" style="endArrow=none;html=1;rounded=0;fontSize=16;entryX=0.5;entryY=1;entryDx=0;entryDy=0;exitX=0.75;exitY=0;exitDx=0;exitDy=0;" parent="1" source="1EXBglIDdu4dAjo1Q3cM-1" target="_TAyfjN0NOrxhkTcAUuJ-3" edge="1">
          <mxGeometry width="50" height="50" relative="1" as="geometry">
            <mxPoint x="505" y="135" as="sourcePoint" />
            <mxPoint x="617.5" y="10" as="targetPoint" />
          </mxGeometry>
        </mxCell>
        <mxCell id="1EXBglIDdu4dAjo1Q3cM-47" value="" style="endArrow=none;html=1;rounded=0;fontSize=16;entryX=0.5;entryY=1;entryDx=0;entryDy=0;" parent="1" target="1EXBglIDdu4dAjo1Q3cM-11" edge="1">
          <mxGeometry width="50" height="50" relative="1" as="geometry">
            <mxPoint x="470" y="140" as="sourcePoint" />
            <mxPoint x="475" y="90" as="targetPoint" />
          </mxGeometry>
        </mxCell>
        <mxCell id="1EXBglIDdu4dAjo1Q3cM-48" value="" style="endArrow=none;html=1;rounded=0;fontSize=16;exitX=1;exitY=0.5;exitDx=0;exitDy=0;" parent="1" target="1EXBglIDdu4dAjo1Q3cM-34" edge="1" source="1EXBglIDdu4dAjo1Q3cM-2">
          <mxGeometry width="50" height="50" relative="1" as="geometry">
            <mxPoint x="55" y="70" as="sourcePoint" />
            <mxPoint x="105" y="20" as="targetPoint" />
          </mxGeometry>
        </mxCell>
        <mxCell id="1EXBglIDdu4dAjo1Q3cM-49" value="" style="endArrow=none;html=1;rounded=0;fontSize=16;entryX=1.013;entryY=0.732;entryDx=0;entryDy=0;entryPerimeter=0;exitX=0.25;exitY=0;exitDx=0;exitDy=0;" parent="1" source="1EXBglIDdu4dAjo1Q3cM-1" target="1EXBglIDdu4dAjo1Q3cM-12" edge="1">
          <mxGeometry width="50" height="50" relative="1" as="geometry">
            <mxPoint x="260" y="250" as="sourcePoint" />
            <mxPoint x="404.0100000000002" y="101.99000000000001" as="targetPoint" />
          </mxGeometry>
        </mxCell>
        <mxCell id="1EXBglIDdu4dAjo1Q3cM-50" value="" style="endArrow=none;html=1;rounded=0;fontSize=16;entryX=0;entryY=1;entryDx=0;entryDy=0;exitX=1;exitY=0.25;exitDx=0;exitDy=0;" parent="1" target="1EXBglIDdu4dAjo1Q3cM-23" edge="1" source="1EXBglIDdu4dAjo1Q3cM-3">
          <mxGeometry width="50" height="50" relative="1" as="geometry">
            <mxPoint x="500" y="395" as="sourcePoint" />
            <mxPoint x="550" y="345" as="targetPoint" />
          </mxGeometry>
        </mxCell>
        <mxCell id="1EXBglIDdu4dAjo1Q3cM-52" value="" style="endArrow=none;html=1;rounded=0;fontSize=16;entryX=0.118;entryY=0.975;entryDx=0;entryDy=0;entryPerimeter=0;" parent="1" edge="1" target="1EXBglIDdu4dAjo1Q3cM-2">
          <mxGeometry width="50" height="50" relative="1" as="geometry">
            <mxPoint x="-60" y="130" as="sourcePoint" />
            <mxPoint x="-10" y="80" as="targetPoint" />
          </mxGeometry>
        </mxCell>
        <mxCell id="1EXBglIDdu4dAjo1Q3cM-54" value="" style="endArrow=none;html=1;rounded=0;fontSize=16;entryX=0.5;entryY=1;entryDx=0;entryDy=0;exitX=0.837;exitY=-0.147;exitDx=0;exitDy=0;exitPerimeter=0;" parent="1" source="1EXBglIDdu4dAjo1Q3cM-8" target="1EXBglIDdu4dAjo1Q3cM-27" edge="1">
          <mxGeometry width="50" height="50" relative="1" as="geometry">
            <mxPoint x="10" y="40" as="sourcePoint" />
            <mxPoint x="40" y="5" as="targetPoint" />
          </mxGeometry>
        </mxCell>
        <mxCell id="1EXBglIDdu4dAjo1Q3cM-55" value="" style="endArrow=none;html=1;rounded=0;fontSize=16;entryX=0.585;entryY=0.973;entryDx=0;entryDy=0;entryPerimeter=0;" parent="1" target="1EXBglIDdu4dAjo1Q3cM-28" edge="1" source="1EXBglIDdu4dAjo1Q3cM-2">
          <mxGeometry width="50" height="50" relative="1" as="geometry">
            <mxPoint x="-30" y="40" as="sourcePoint" />
            <mxPoint x="20" as="targetPoint" />
          </mxGeometry>
        </mxCell>
        <mxCell id="1EXBglIDdu4dAjo1Q3cM-56" value="" style="endArrow=none;html=1;rounded=0;fontSize=16;" parent="1" source="1EXBglIDdu4dAjo1Q3cM-2" target="1EXBglIDdu4dAjo1Q3cM-29" edge="1">
          <mxGeometry width="50" height="50" relative="1" as="geometry">
            <mxPoint x="260" y="250" as="sourcePoint" />
            <mxPoint x="230" y="270" as="targetPoint" />
          </mxGeometry>
        </mxCell>
        <mxCell id="1EXBglIDdu4dAjo1Q3cM-63" value="" style="endArrow=none;html=1;rounded=0;fontSize=16;exitX=0.319;exitY=-0.053;exitDx=0;exitDy=0;exitPerimeter=0;" parent="1" source="1EXBglIDdu4dAjo1Q3cM-36" target="1EXBglIDdu4dAjo1Q3cM-2" edge="1">
          <mxGeometry width="50" height="50" relative="1" as="geometry">
            <mxPoint x="260" y="250" as="sourcePoint" />
            <mxPoint x="310" y="200" as="targetPoint" />
          </mxGeometry>
        </mxCell>
        <mxCell id="yI4_Cn8DKiqFxgxlQeYz-4" value="&lt;font style=&quot;font-size: 14px;&quot;&gt;Главни герои&lt;/font&gt;" style="ellipse;whiteSpace=wrap;html=1;fillColor=none;gradientColor=none;" parent="1" vertex="1">
          <mxGeometry x="660" width="92.43" height="60" as="geometry" />
        </mxCell>
        <mxCell id="yI4_Cn8DKiqFxgxlQeYz-6" value="&lt;font style=&quot;font-size: 15px;&quot;&gt;История на писане&lt;/font&gt;" style="ellipse;whiteSpace=wrap;html=1;fillColor=none;gradientColor=none;" parent="1" vertex="1">
          <mxGeometry x="590" y="-40" width="92.43" height="60" as="geometry" />
        </mxCell>
        <mxCell id="_TAyfjN0NOrxhkTcAUuJ-1" value="&lt;font style=&quot;font-size: 15px;&quot;&gt;ЗаглавиеID&lt;/font&gt;" style="ellipse;whiteSpace=wrap;html=1;" parent="1" vertex="1">
          <mxGeometry x="470" y="430" width="90" height="60" as="geometry" />
        </mxCell>
        <mxCell id="_TAyfjN0NOrxhkTcAUuJ-2" value="" style="endArrow=none;html=1;rounded=0;fontSize=15;" parent="1" source="_TAyfjN0NOrxhkTcAUuJ-1" edge="1">
          <mxGeometry width="50" height="50" relative="1" as="geometry">
            <mxPoint x="430" y="455" as="sourcePoint" />
            <mxPoint x="480" y="405" as="targetPoint" />
          </mxGeometry>
        </mxCell>
        <mxCell id="_TAyfjN0NOrxhkTcAUuJ-3" value="&lt;font style=&quot;font-size: 16px;&quot;&gt;Тема Заглавие&lt;/font&gt;" style="ellipse;whiteSpace=wrap;html=1;fontSize=15;" parent="1" vertex="1">
          <mxGeometry x="530" y="-80" width="80" height="60" as="geometry" />
        </mxCell>
        <mxCell id="_TAyfjN0NOrxhkTcAUuJ-4" value="ТемаID" style="ellipse;whiteSpace=wrap;html=1;fontSize=16;" parent="1" vertex="1">
          <mxGeometry x="450" y="-80" width="75" height="60" as="geometry" />
        </mxCell>
        <mxCell id="_TAyfjN0NOrxhkTcAUuJ-5" value="Автор" style="ellipse;whiteSpace=wrap;html=1;fontSize=16;" parent="1" vertex="1">
          <mxGeometry x="660" y="230" width="75" height="30" as="geometry" />
        </mxCell>
        <mxCell id="_TAyfjN0NOrxhkTcAUuJ-6" value="АвторID" style="ellipse;whiteSpace=wrap;html=1;fontSize=16;" parent="1" vertex="1">
          <mxGeometry x="696.22" y="192.5" width="80" height="27.5" as="geometry" />
        </mxCell>
        <mxCell id="_TAyfjN0NOrxhkTcAUuJ-7" value="Композиция" style="ellipse;whiteSpace=wrap;html=1;fontSize=16;" parent="1" vertex="1">
          <mxGeometry x="570" y="240" width="90" height="40" as="geometry" />
        </mxCell>
        <mxCell id="_TAyfjN0NOrxhkTcAUuJ-8" value="Жанр" style="ellipse;whiteSpace=wrap;html=1;fontSize=16;" parent="1" vertex="1">
          <mxGeometry x="305" y="180" width="90" height="40" as="geometry" />
        </mxCell>
        <mxCell id="_TAyfjN0NOrxhkTcAUuJ-9" value="" style="endArrow=none;html=1;rounded=0;fontSize=16;entryX=1;entryY=1;entryDx=0;entryDy=0;exitX=0.385;exitY=-0.027;exitDx=0;exitDy=0;exitPerimeter=0;" parent="1" target="1EXBglIDdu4dAjo1Q3cM-9" edge="1">
          <mxGeometry width="50" height="50" relative="1" as="geometry">
            <mxPoint x="455.0500000000002" y="139.19000000000005" as="sourcePoint" />
            <mxPoint x="310" y="80" as="targetPoint" />
          </mxGeometry>
        </mxCell>
        <mxCell id="_TAyfjN0NOrxhkTcAUuJ-10" value="" style="endArrow=none;html=1;rounded=0;fontSize=16;entryX=0.5;entryY=1;entryDx=0;entryDy=0;exitX=0.606;exitY=-0.053;exitDx=0;exitDy=0;exitPerimeter=0;" parent="1" target="_TAyfjN0NOrxhkTcAUuJ-4" edge="1">
          <mxGeometry width="50" height="50" relative="1" as="geometry">
            <mxPoint x="483.7800000000002" y="138.41000000000008" as="sourcePoint" />
            <mxPoint x="310" y="80" as="targetPoint" />
          </mxGeometry>
        </mxCell>
        <mxCell id="_TAyfjN0NOrxhkTcAUuJ-11" value="" style="endArrow=none;html=1;rounded=0;fontSize=16;entryX=0.322;entryY=0.953;entryDx=0;entryDy=0;entryPerimeter=0;exitX=0.865;exitY=0.027;exitDx=0;exitDy=0;exitPerimeter=0;" parent="1" target="yI4_Cn8DKiqFxgxlQeYz-6" edge="1">
          <mxGeometry width="50" height="50" relative="1" as="geometry">
            <mxPoint x="517.4499999999998" y="140.80999999999995" as="sourcePoint" />
            <mxPoint x="310" y="80" as="targetPoint" />
          </mxGeometry>
        </mxCell>
        <mxCell id="_TAyfjN0NOrxhkTcAUuJ-12" value="" style="endArrow=none;html=1;rounded=0;fontSize=16;entryX=0.054;entryY=0.787;entryDx=0;entryDy=0;entryPerimeter=0;exitX=0.895;exitY=-0.027;exitDx=0;exitDy=0;exitPerimeter=0;" parent="1" target="yI4_Cn8DKiqFxgxlQeYz-4" edge="1">
          <mxGeometry width="50" height="50" relative="1" as="geometry">
            <mxPoint x="521.3499999999999" y="139.19000000000005" as="sourcePoint" />
            <mxPoint x="310" y="80" as="targetPoint" />
          </mxGeometry>
        </mxCell>
        <mxCell id="_TAyfjN0NOrxhkTcAUuJ-13" value="" style="endArrow=none;html=1;rounded=0;fontSize=16;entryX=0;entryY=0.5;entryDx=0;entryDy=0;exitX=0.994;exitY=0.56;exitDx=0;exitDy=0;exitPerimeter=0;" parent="1" target="1EXBglIDdu4dAjo1Q3cM-15" edge="1">
          <mxGeometry width="50" height="50" relative="1" as="geometry">
            <mxPoint x="534.2199999999998" y="156.79999999999995" as="sourcePoint" />
            <mxPoint x="310" y="80" as="targetPoint" />
          </mxGeometry>
        </mxCell>
        <mxCell id="_TAyfjN0NOrxhkTcAUuJ-14" value="" style="endArrow=none;html=1;rounded=0;fontSize=16;entryX=0;entryY=0.5;entryDx=0;entryDy=0;exitX=0.994;exitY=1.013;exitDx=0;exitDy=0;exitPerimeter=0;" parent="1" target="_TAyfjN0NOrxhkTcAUuJ-6" edge="1">
          <mxGeometry width="50" height="50" relative="1" as="geometry">
            <mxPoint x="534.2199999999998" y="170.3900000000001" as="sourcePoint" />
            <mxPoint x="310" y="80" as="targetPoint" />
          </mxGeometry>
        </mxCell>
        <mxCell id="_TAyfjN0NOrxhkTcAUuJ-15" value="" style="endArrow=none;html=1;rounded=0;fontSize=16;entryX=0;entryY=0;entryDx=0;entryDy=0;exitX=0.951;exitY=1.013;exitDx=0;exitDy=0;exitPerimeter=0;" parent="1" target="_TAyfjN0NOrxhkTcAUuJ-5" edge="1">
          <mxGeometry width="50" height="50" relative="1" as="geometry">
            <mxPoint x="528.6300000000001" y="170.3900000000001" as="sourcePoint" />
            <mxPoint x="310" y="80" as="targetPoint" />
          </mxGeometry>
        </mxCell>
        <mxCell id="_TAyfjN0NOrxhkTcAUuJ-16" value="1" style="text;html=1;align=center;verticalAlign=middle;resizable=0;points=[];autosize=1;strokeColor=none;fillColor=none;fontSize=16;" parent="1" vertex="1">
          <mxGeometry x="80" y="65" width="30" height="30" as="geometry" />
        </mxCell>
        <mxCell id="_TAyfjN0NOrxhkTcAUuJ-17" value="М" style="text;html=1;align=center;verticalAlign=middle;resizable=0;points=[];autosize=1;strokeColor=none;fillColor=none;fontSize=16;" parent="1" vertex="1">
          <mxGeometry x="470" y="175" width="40" height="30" as="geometry" />
        </mxCell>
        <mxCell id="_TAyfjN0NOrxhkTcAUuJ-18" value="1" style="text;html=1;align=center;verticalAlign=middle;resizable=0;points=[];autosize=1;strokeColor=none;fillColor=none;fontSize=16;" parent="1" vertex="1">
          <mxGeometry x="465" y="335" width="30" height="30" as="geometry" />
        </mxCell>
        <mxCell id="_TAyfjN0NOrxhkTcAUuJ-19" value="М" style="text;html=1;align=center;verticalAlign=middle;resizable=0;points=[];autosize=1;strokeColor=none;fillColor=none;fontSize=16;" parent="1" vertex="1">
          <mxGeometry x="370" y="132.5" width="40" height="30" as="geometry" />
        </mxCell>
        <mxCell id="_TAyfjN0NOrxhkTcAUuJ-20" value="има" style="rhombus;whiteSpace=wrap;html=1;fontSize=16;" parent="1" vertex="1">
          <mxGeometry x="180" y="80" width="100" height="75" as="geometry" />
        </mxCell>
        <mxCell id="_TAyfjN0NOrxhkTcAUuJ-21" value="" style="endArrow=none;html=1;rounded=0;fontSize=16;exitX=1;exitY=1;exitDx=0;exitDy=0;entryX=0.158;entryY=0.32;entryDx=0;entryDy=0;entryPerimeter=0;" parent="1" source="1EXBglIDdu4dAjo1Q3cM-2" target="_TAyfjN0NOrxhkTcAUuJ-20" edge="1">
          <mxGeometry width="50" height="50" relative="1" as="geometry">
            <mxPoint x="5" y="85" as="sourcePoint" />
            <mxPoint x="419.9499999999998" y="138.68000000000006" as="targetPoint" />
          </mxGeometry>
        </mxCell>
        <mxCell id="_TAyfjN0NOrxhkTcAUuJ-22" value="има" style="rhombus;whiteSpace=wrap;html=1;fontSize=16;" parent="1" vertex="1">
          <mxGeometry x="420" y="240" width="100" height="60" as="geometry" />
        </mxCell>
        <mxCell id="_TAyfjN0NOrxhkTcAUuJ-23" value="" style="endArrow=none;html=1;rounded=0;fontSize=16;entryX=1;entryY=1;entryDx=0;entryDy=0;exitX=0.633;exitY=-0.089;exitDx=0;exitDy=0;exitPerimeter=0;" parent="1" source="1EXBglIDdu4dAjo1Q3cM-6" target="_TAyfjN0NOrxhkTcAUuJ-22" edge="1">
          <mxGeometry width="50" height="50" relative="1" as="geometry">
            <mxPoint x="457.98" y="367.3299999999999" as="sourcePoint" />
            <mxPoint x="478.71000000000004" y="171.31999999999994" as="targetPoint" />
          </mxGeometry>
        </mxCell>
        <mxCell id="i9ce5VubBpGCQ17yB63N-1" value="&lt;font style=&quot;font-size: 17px;&quot;&gt;произведение&lt;/font&gt;" style="rounded=0;whiteSpace=wrap;html=1;" vertex="1" parent="1">
          <mxGeometry x="414" y="132.5" width="120" height="50" as="geometry" />
        </mxCell>
      </root>
    </mxGraphModel>
  </diagram>
</mxfile>
